<svg width="74" height="74" viewBox="0 0 74 74" fill="none" xmlns="http://www.w3.org/2000/svg">
<rect x="74" y="74" width="74" height="74" rx="25" transform="rotate(180 74 74)" fill="#22663D"/>
<path d="M12.6884 37C11.2036 37 9.98611 38.2066 10.1337 39.684C10.7504 45.8592 13.4813 51.665 17.9081 56.0919C22.9716 61.1554 29.8392 64 37 64C44.1608 64 51.0284 61.1554 56.0919 56.0919C60.5187 51.665 63.2496 45.8592 63.8663 39.6841C64.0139 38.2066 62.7964 37 61.3116 37V37C59.8268 37 58.6405 38.2083 58.4564 39.6816C57.8633 44.4278 55.7078 48.872 52.2899 52.2899C48.2348 56.345 42.7348 58.6232 37 58.6232C31.2652 58.6232 25.7652 56.345 21.7101 52.2899C18.2922 48.872 16.1367 44.4278 15.5436 39.6816C15.3595 38.2083 14.1732 37 12.6884 37V37Z" fill="url(#paint0_linear_50_123)"/>
<defs>
<linearGradient id="paint0_linear_50_123" x1="61.5" y1="37" x2="10" y2="37" gradientUnits="userSpaceOnUse">
<stop stop-color="#22663D" stop-opacity="0"/>
<stop offset="1" stop-color="white"/>
</linearGradient>
</defs>
</svg>
